<svg xmlns="http://www.w3.org/2000/svg" width="128" height="128" viewBox="0 0 128 128">
  <title>GARBAGE TRUCK</title>
  <g>
    <path d="M113.541,88.608H14.459a1.75,1.75,0,0,1,0-3.5h99.082a1.75,1.75,0,0,1,0,3.5Z" fill="#315693"/>
    <path d="M99.844,79.313a7.546,7.546,0,1,1-7.555-7.547A7.554,7.554,0,0,1,99.844,79.313Z" fill="#315693"/>
    <path d="M109.272,62.54V79.313H99.844a7.546,7.546,0,1,0-15.092,0h-5.49V46.952H93.684A15.585,15.585,0,0,1,109.272,62.54Z" fill="#38a590"/>
    <path d="M79.262,41.141V79.313H59.313a7.546,7.546,0,1,0-15.092,0,7.546,7.546,0,1,0-15.092,0h-10.4V65.423L31.58,41.141Z" fill="#99cc71"/>
    <path d="M87.465,53.285h5.949a9.772,9.772,0,0,1,9.772,9.772v.805a0,0,0,0,1,0,0H87.465a0,0,0,0,1,0,0V53.285A0,0,0,0,1,87.465,53.285Z" fill="#fff"/>
    <g>
      <path d="M57.8,56.685a1.75,1.75,0,0,1-1.518-.875l-2.234-3.87c-.028-.049-.182-.049-.208,0l-2.189,3.791a1.75,1.75,0,1,1-3.031-1.75l2.188-3.791a3.621,3.621,0,0,1,6.271,0l2.234,3.87A1.75,1.75,0,0,1,57.8,56.685Z" fill="#fff"/>
      <path d="M59.949,66.015h-3.83a1.75,1.75,0,0,1,0-3.5h3.83a.1.1,0,0,0,.105-.061.1.1,0,0,0,0-.118l-1.932-3.347a1.75,1.75,0,0,1,3.031-1.75l1.931,3.346a3.62,3.62,0,0,1-3.135,5.43Z" fill="#fff"/>
      <path d="M52.014,66.015H47.947a3.621,3.621,0,0,1-3.136-5.43l1.915-3.341a1.75,1.75,0,0,1,3.037,1.74L47.846,62.33a.106.106,0,0,0,0,.124.1.1,0,0,0,.1.061h4.067a1.75,1.75,0,0,1,0,3.5Z" fill="#fff"/>
    </g>
    <path d="M44.221,79.313a7.546,7.546,0,1,1-7.546-7.547A7.552,7.552,0,0,1,44.221,79.313Z" fill="#315693"/>
    <path d="M18.728,71.766H36.675a7.546,7.546,0,0,0-7.546,7.547h-10.4Z" fill="#6bc1b0"/>
    <circle cx="51.767" cy="79.313" r="7.546" fill="#315693"/>
    <path d="M79.262,71.766v7.547H59.313a7.546,7.546,0,0,0-7.546-7.547Z" fill="#6bc1b0"/>
    <path d="M94.267,79.313a1.969,1.969,0,1,1-1.969-1.97A1.97,1.97,0,0,1,94.267,79.313Z" fill="#fff"/>
    <circle cx="51.767" cy="79.313" r="1.969" fill="#fff"/>
    <path d="M38.644,79.313a1.969,1.969,0,1,1-1.969-1.97A1.969,1.969,0,0,1,38.644,79.313Z" fill="#fff"/>
    <path d="M108.677,76.725H106.1a1.75,1.75,0,0,1,0-3.5h2.575a1.75,1.75,0,0,1,0,3.5Z" fill="#ffdd7d"/>
  </g>
</svg>
